<svg xmlns="http://www.w3.org/2000/svg" viewBox="0 0 128 128" role="img" aria-label="Relatos de Papel">

  <rect width="128" height="128" rx="26" fill="#F7F2E8"></rect>

  <rect x="61" y="26" width="6" height="76" rx="3" fill="#C9A24D"></rect>

  <path d="M64 34
       C52 28 40 28 28 34
       V96
       C40 90 52 90 64 96
       Z" fill="none" stroke="#111827" stroke-width="6" stroke-linejoin="round"></path>

  <path d="M64 34
       C76 28 88 28 100 34
       V96
       C88 90 76 90 64 96
       Z" fill="none" stroke="#111827" stroke-width="6" stroke-linejoin="round"></path>

  <path d="M38 50 C46 46 54 46 62 50" fill="none" stroke="#111827" stroke-width="3" stroke-linecap="round" opacity="0.35"></path>
  <path d="M38 62 C46 58 54 58 62 62" fill="none" stroke="#111827" stroke-width="3" stroke-linecap="round" opacity="0.35"></path>
  <path d="M66 50 C74 46 82 46 90 50" fill="none" stroke="#111827" stroke-width="3" stroke-linecap="round" opacity="0.35"></path>
  <path d="M66 62 C74 58 82 58 90 62" fill="none" stroke="#111827" stroke-width="3" stroke-linecap="round" opacity="0.35"></path>

  <text x="64" y="88" text-anchor="middle" font-family="ui-serif, Georgia, 'Times New Roman', serif" font-size="44" font-weight="700" fill="#111827">R</text>

  <circle cx="92" cy="40" r="4" fill="#C9A24D" opacity="0.95"></circle>
</svg>
